<svg width="50" height="50" viewBox="0 0 50 50" fill="none" xmlns="http://www.w3.org/2000/svg">
<mask id="mask0_478_425" style="mask-type:alpha" maskUnits="userSpaceOnUse" x="0" y="0" width="50" height="50">
<rect y="0.203125" width="49.7969" height="49.7969" fill="#D9D9D9"/>
</mask>
<g mask="url(#mask0_478_425)">
<path d="M13.2068 35.875C11.9433 35.875 10.8693 35.4327 9.98482 34.5482C9.10034 33.6638 8.6581 32.5897 8.6581 31.3262H4.66797V14.7272C4.66797 14.1566 4.87113 13.6682 5.27746 13.2618C5.68379 12.8555 6.17225 12.6523 6.74284 12.6523H33.8758L45.1279 23.2661V31.3262H41.7762C41.7762 32.5897 41.334 33.6638 40.4495 34.5482C39.565 35.4327 38.491 35.875 37.2275 35.875C35.9639 35.875 34.8899 35.4327 34.0054 34.5482C33.121 33.6638 32.6787 32.5897 32.6787 31.3262H17.7556C17.7556 32.5764 17.3134 33.6471 16.4289 34.5382C15.5444 35.4294 14.4704 35.875 13.2068 35.875ZM29.5664 22.1489H40.8984L32.9979 14.7272H29.5664V22.1489ZM18.1546 22.1489H27.4915V14.7272H18.1546V22.1489ZM6.74284 22.1489H16.0798V14.7272H6.74284V22.1489ZM13.2068 33.9198C13.933 33.9198 14.5469 33.669 15.0483 33.1676C15.5497 32.6662 15.8004 32.0524 15.8004 31.3262C15.8004 30.6 15.5497 29.9862 15.0483 29.4847C14.5469 28.9833 13.933 28.7326 13.2068 28.7326C12.4806 28.7326 11.8668 28.9833 11.3654 29.4847C10.864 29.9862 10.6132 30.6 10.6132 31.3262C10.6132 32.0524 10.864 32.6662 11.3654 33.1676C11.8668 33.669 12.4806 33.9198 13.2068 33.9198ZM37.2275 33.9198C37.9537 33.9198 38.5675 33.669 39.0689 33.1676C39.5703 32.6662 39.821 32.0524 39.821 31.3262C39.821 30.6 39.5703 29.9862 39.0689 29.4847C38.5675 28.9833 37.9537 28.7326 37.2275 28.7326C36.5012 28.7326 35.8874 28.9833 35.386 29.4847C34.8846 29.9862 34.6339 30.6 34.6339 31.3262C34.6339 32.0524 34.8846 32.6662 35.386 33.1676C35.8874 33.669 36.5012 33.9198 37.2275 33.9198ZM6.74284 29.2513H9.20073C9.49602 28.6288 10.0041 28.0609 10.725 27.5475C11.4459 27.0341 12.2731 26.7774 13.2068 26.7774C14.1405 26.7774 14.9479 27.0142 15.6289 27.4877C16.3099 27.9611 16.8379 28.549 17.2129 29.2513H33.2213C33.5166 28.6288 34.0247 28.0609 34.7456 27.5475C35.4665 27.0341 36.2938 26.7774 37.2275 26.7774C38.1611 26.7774 38.9685 27.0142 39.6495 27.4877C40.3305 27.9611 40.8585 28.549 41.2336 29.2513H43.0531V24.2237H6.74284V29.2513Z" fill="#00002E"/>
</g>
</svg>
