<svg width="227" height="184" viewBox="0 0 227 184" fill="none" xmlns="http://www.w3.org/2000/svg">
<path d="M105.523 76.61C109.8 61.9742 113.134 46.7168 112.606 31.3915C112.139 20.5825 109.313 7.57325 98.643 3.15891C87.8381 -0.15634 78.1521 9.4457 70.7673 16.5938C55.2664 33.0681 43.7799 53.1335 34.0144 73.5925C33.8766 73.8927 33.6808 74.1623 33.4383 74.3856C33.1958 74.6089 32.9115 74.7813 32.602 74.893C32.2925 75.0046 31.964 75.0531 31.6357 75.0357C31.3073 75.0183 30.9858 74.9353 30.6897 74.7915C30.3866 74.6414 30.1162 74.4323 29.8941 74.1762C29.6721 73.9202 29.5028 73.6223 29.3961 73.3C29.2894 72.9776 29.2475 72.6372 29.2727 72.2984C29.2979 71.9596 29.3898 71.6292 29.543 71.3264C40.0458 50.7435 52.2537 30.6781 68.5376 14.2817C76.5642 6.83187 87.6334 -3.2238 99.4797 1.0007C110.889 5.96259 113.804 20.0929 113.899 31.3475C113.999 46.8487 110.235 62.0061 105.523 76.606" fill="#B0C9CD"/>
<path d="M10.0653 31.4468L24.497 65.6705C26.0987 69.7191 23.8491 74.699 19.8487 76.1038C18.4576 76.6134 16.4127 76.7613 14.9421 76.9991C12.7004 77.3288 8.1853 77.9603 5.93569 78.286C5.57201 78.3499 3.45952 78.6337 3.12367 78.6857L2.84149 78.7276C2.84149 78.7276 2.67255 78.7516 2.77788 78.7376C4.25642 78.4279 4.23457 76.3196 2.86135 75.9759C3.46946 76.0898 5.9198 76.5315 6.89556 76.7133C9.12928 77.129 13.6126 77.9403 15.8384 78.352L18.0741 78.7636C22.0208 79.2652 25.1547 83.3898 24.497 87.4484C22.4838 94.2268 19.7434 100.614 17.927 107.51C11.7982 126.906 0.327547 188.655 35.7887 180.601C53.0782 174.786 65.0754 158.973 75.2325 144.231C81.9674 133.96 87.7206 123.019 92.7067 111.734C82.969 134.316 70.7671 156.623 52.166 172.884C35.286 187.715 14.5188 188.333 9.9043 162.28C5.91183 137.375 12.5335 112.192 20.5045 88.7853C21.8956 86.0696 20.4648 82.7903 17.454 82.4406C16.0271 82.1768 12.1957 81.5933 10.7211 81.3275C8.40392 80.9678 4.59625 80.2983 2.30888 79.9286C-0.560765 79.7048 -0.870787 75.3684 2.03066 74.7829C2.7123 74.673 4.61413 74.3613 5.33552 74.2513C9.04579 73.5779 14.795 72.8865 18.3423 72.0652C20.1686 71.3877 21.1643 69.0417 20.3912 67.2591L5.48656 33.5011C4.17296 30.4516 8.67616 28.3274 10.0573 31.4428" fill="#B0C9CD"/>
<path d="M31.5469 77.8969C28.9634 79.2518 27.5723 81.5798 26.8926 84.4655C26.8724 84.5646 26.8187 84.6537 26.7407 84.7177C26.6626 84.7817 26.565 84.8166 26.4644 84.8166C26.3637 84.8166 26.2661 84.7817 26.1881 84.7177C26.1101 84.6537 26.0564 84.5646 26.0361 84.4655C25.1935 81.1862 23.7288 79.0479 21.6183 78.0987C21.5365 78.066 21.4664 78.0092 21.4174 77.9356C21.3684 77.862 21.3427 77.7752 21.3438 77.6866C21.3449 77.5981 21.3726 77.5119 21.4234 77.4396C21.4742 77.3672 21.5457 77.3121 21.6283 77.2814C23.8541 76.4281 25.3684 74.5916 26.1374 71.712C26.1588 71.6187 26.2106 71.5353 26.2846 71.4749C26.3585 71.4146 26.4504 71.3808 26.5456 71.379C26.6408 71.3771 26.7339 71.4073 26.8101 71.4648C26.8863 71.5222 26.9412 71.6036 26.9662 71.696C27.8605 74.5816 29.3648 76.3802 31.4793 77.0916C31.5595 77.1189 31.63 77.1692 31.6822 77.2362C31.7345 77.3032 31.7661 77.3841 31.7733 77.469C31.7804 77.5538 31.7629 77.639 31.7227 77.7139C31.6824 77.7888 31.6214 77.8504 31.5469 77.8909" fill="#B0C9CD"/>
<path d="M44.2668 91.1726C44.284 92.1009 43.9758 93.0057 43.3963 93.7285C42.8147 94.4599 41.9641 95.0294 40.8446 95.4371C39.7251 95.8447 38.3658 96.0446 36.7667 96.0366C35.3768 96.0657 33.9938 95.8332 32.6888 95.3511C31.6192 94.9607 30.6749 94.286 29.9563 93.3988C29.2947 92.549 28.9127 91.5132 28.8633 90.4352H31.6455C31.6967 90.9373 31.8603 91.4212 32.1239 91.8506C32.3875 92.2801 32.7444 92.644 33.1677 92.9152C34.0421 93.4933 35.2438 93.7831 36.7727 93.7844C38.2432 93.7844 39.3879 93.5513 40.2067 93.085C40.5891 92.8909 40.9082 92.5907 41.1263 92.2199C41.3443 91.8491 41.452 91.4232 41.4368 90.9927M41.4368 84.1864C41.4491 83.6657 41.2653 83.1596 40.9221 82.7696C40.5224 82.3501 40.0179 82.0465 39.4615 81.8903C38.7459 81.6766 38.0019 81.5749 37.2556 81.5885C35.8526 81.5885 34.7317 81.8683 33.8931 82.4278C33.4912 82.6813 33.1493 83.0202 32.8915 83.4207C32.6337 83.8211 32.4661 84.2734 32.4006 84.7459H29.6363C29.7261 83.7441 30.1022 82.7898 30.7194 81.9982C31.4106 81.1307 32.3157 80.4603 33.3446 80.0538C34.472 79.5755 35.8135 79.3357 37.3688 79.3344C38.6084 79.308 39.8428 79.5015 41.0155 79.9059C41.9353 80.2106 42.7605 80.7505 43.4102 81.4726C43.9671 82.1102 44.27 82.9322 44.2608 83.7807" fill="white"/>
<path d="M56.1407 79.6445L63.7083 95.7472H60.7453L53.8812 80.7196H54.9523L48.0783 95.7472H45.1172L52.6828 79.6445H56.1407ZM48.8295 92.0542V89.7142L54.4078 88.9968L59.841 89.7142V92.0542L54.4078 91.3369L48.8295 92.0542Z" fill="white"/>
<path d="M81.128 80.3599V95.7432H78.3736V81.5849L79.6355 82.8719L73.3736 82.1564L67.1315 82.8719L68.3934 81.5849V95.7432H65.6172V80.3599L73.3736 79.6445L81.128 80.3599Z" fill="white"/>
<path d="M80.3449 101.881V117.984H77.5905V103.106L78.8525 104.393H68.3536L69.6135 103.106V110.486L66.8075 117.984H64.0312L66.8393 110.486V101.881H80.3449Z" fill="white"/>
<path d="M92.8547 96.0459C91.0621 96.0459 89.4862 95.6962 88.1269 94.9968C86.8133 94.3397 85.7111 93.3228 84.9472 92.0632C84.2032 90.7292 83.8125 89.2253 83.8125 87.6958C83.8125 86.1663 84.2032 84.6625 84.9472 83.3285C85.7111 82.0689 86.8133 81.052 88.1269 80.3949C89.4836 79.6955 91.0595 79.3451 92.8547 79.3438C94.6499 79.3424 96.2264 79.6928 97.5844 80.3949C98.8976 81.0525 99.9997 82.0693 100.764 83.3285C101.508 84.6625 101.899 86.1663 101.899 87.6958C101.899 89.2253 101.508 90.7292 100.764 92.0632C99.9997 93.3224 98.8976 94.3392 97.5844 94.9968C96.2251 95.6962 94.6485 96.0459 92.8547 96.0459ZM92.8547 93.514C93.9946 93.5433 95.1252 93.3001 96.1535 92.8046C97.0518 92.3565 97.801 91.6552 98.3098 90.7863C98.8123 89.8342 99.075 88.7727 99.075 87.6948C99.075 86.6169 98.8123 85.5555 98.3098 84.6034C97.8013 83.7348 97.0519 83.0341 96.1535 82.5871C95.118 82.1195 93.9957 81.8777 92.8606 81.8777C91.7254 81.8777 90.6032 82.1195 89.5677 82.5871C88.6649 83.0314 87.9117 83.7325 87.4015 84.6034C86.899 85.5555 86.6363 86.6169 86.6363 87.6948C86.6363 88.7727 86.899 89.8342 87.4015 90.7863C87.9116 91.6577 88.6648 92.3594 89.5677 92.8046C90.5926 93.2979 91.7188 93.5409 92.8547 93.514Z" fill="white"/>
<path d="M112.929 79.6467C113.983 79.6198 115.03 79.8401 115.985 80.2902C116.809 80.6847 117.502 81.309 117.982 82.0887C118.443 82.8956 118.686 83.8099 118.686 84.7405C118.686 85.6711 118.443 86.5854 117.982 87.3923C117.502 88.172 116.809 88.7963 115.985 89.1908C115.03 89.6426 113.984 89.8636 112.929 89.8363H105.848V87.3743H112.823C113.777 87.3743 114.521 87.1385 115.061 86.6669C115.318 86.4156 115.522 86.1151 115.661 85.7832C115.8 85.4513 115.872 85.0947 115.872 84.7345C115.872 84.3743 115.8 84.0177 115.661 83.6859C115.522 83.354 115.318 83.0535 115.061 82.8021C114.521 82.3305 113.777 82.0927 112.823 82.0927H106.118L107.36 80.6759L108.062 87.6981L107.36 95.7494H104.578L105.28 87.8859L104.578 79.6467H112.929Z" fill="white"/>
<path d="M129.149 96.0458C127.356 96.0458 125.779 95.6961 124.42 94.9966C123.112 94.3388 122.014 93.3243 121.252 92.0691C120.508 90.735 120.117 89.2312 120.117 87.7017C120.117 86.1722 120.508 84.6683 121.252 83.3343C122.016 82.0752 123.118 81.0584 124.432 80.4007C125.791 79.7013 127.367 79.3509 129.161 79.3496C130.955 79.3483 132.531 79.6987 133.889 80.4007C135.203 81.0578 136.305 82.0747 137.069 83.3343C137.813 84.6683 138.204 86.1722 138.204 87.7017C138.204 89.2312 137.813 90.735 137.069 92.0691C136.305 93.3286 135.203 94.3455 133.889 95.0026C132.531 95.7021 130.955 96.0518 129.161 96.0518M129.161 93.5199C130.301 93.5489 131.432 93.3058 132.46 92.8105C133.358 92.362 134.106 91.6608 134.614 90.7921C135.118 89.8404 135.382 88.7788 135.382 87.7007C135.382 86.6226 135.118 85.561 134.614 84.6093C134.106 83.7414 133.357 83.0408 132.46 82.5929C131.424 82.1253 130.302 81.8835 129.166 81.8835C128.031 81.8835 126.908 82.1253 125.872 82.5929C124.97 83.0379 124.217 83.7388 123.706 84.6093C123.204 85.5614 122.941 86.6228 122.941 87.7007C122.941 88.7786 123.204 89.84 123.706 90.7921C124.217 91.6631 124.97 92.3648 125.872 92.8105C126.898 93.3037 128.025 93.5468 129.161 93.5199Z" fill="white"/>
<path d="M225.088 87.2038V89.3081H218.154L218.132 89.2641C217.129 89.286 216.134 89.0811 215.221 88.6646C214.428 88.2976 213.752 87.7174 213.267 86.988C212.788 86.2404 212.543 85.3653 212.564 84.4761C212.544 83.5839 212.789 82.706 213.267 81.9542C213.752 81.22 214.428 80.6332 215.221 80.2576C216.132 79.8333 217.128 79.6241 218.132 79.6461H227.001V95.7488H224.219V80.5054L225.457 81.7723H218.44C217.472 81.7723 216.713 82.0141 216.159 82.5037C215.883 82.7496 215.666 83.0544 215.522 83.3956C215.379 83.7369 215.313 84.106 215.33 84.4761C215.314 84.8482 215.38 85.2192 215.523 85.5626C215.667 85.906 215.884 86.2133 216.159 86.4625C216.713 86.9567 217.473 87.2038 218.44 87.2038H225.088Z" fill="white"/>
<path d="M37.8136 118.282C36.0198 118.282 34.4432 117.932 33.0839 117.231C31.7707 116.573 30.6686 115.557 29.9043 114.298C29.1603 112.964 28.7695 111.46 28.7695 109.93C28.7695 108.401 29.1603 106.897 29.9043 105.563C30.6688 104.304 31.7709 103.288 33.0839 102.631C34.4432 101.93 36.0198 101.58 37.8136 101.58C39.6075 101.58 41.1834 101.93 42.5414 102.631C43.8548 103.288 44.9571 104.304 45.7211 105.563C46.4651 106.897 46.8558 108.401 46.8558 109.93C46.8558 111.46 46.4651 112.964 45.7211 114.298C44.9572 115.557 43.855 116.574 42.5414 117.231C41.1848 117.931 39.6088 118.281 37.8136 118.282ZM37.8136 115.748C38.9537 115.778 40.0845 115.535 41.1126 115.039C42.0104 114.592 42.7591 113.891 43.2668 113.023C43.7705 112.071 44.0339 111.009 44.0339 109.931C44.0339 108.853 43.7705 107.791 43.2668 106.84C42.758 105.972 42.0097 105.27 41.1126 104.821C40.0767 104.354 38.9541 104.112 37.8186 104.112C36.6832 104.112 35.5606 104.354 34.5247 104.821C33.6228 105.268 32.8699 105.969 32.3585 106.84C31.856 107.792 31.5933 108.853 31.5933 109.931C31.5933 111.009 31.856 112.07 32.3585 113.023C32.8687 113.893 33.6219 114.595 34.5247 115.039C35.55 115.533 36.677 115.776 37.8136 115.748Z" fill="white"/>
<path d="M50.3704 108.324H57.7233C58.7548 108.289 59.7802 108.494 60.7201 108.923C61.4959 109.292 62.1459 109.883 62.5882 110.622C63.03 111.395 63.2527 112.274 63.2321 113.166C63.2505 114.054 63.0161 114.929 62.5564 115.688C62.0949 116.423 61.4307 117.009 60.6446 117.372C59.7286 117.792 58.7297 117.997 57.7233 117.972H48.1406L48.7368 109.471L48.1406 101.877H61.9264V104.241H49.8874L50.897 102.8L51.4932 109.435L50.897 117.12L49.8239 115.705H57.4729C58.3844 115.705 59.1091 115.472 59.647 115.006C59.9037 114.762 60.1081 114.467 60.2479 114.141C60.3876 113.815 60.4596 113.463 60.4596 113.108C60.4596 112.752 60.3876 112.401 60.2479 112.074C60.1081 111.748 59.9037 111.453 59.647 111.209C59.1012 110.746 58.3725 110.513 57.461 110.512H50.3783L50.3704 108.324Z" fill="white"/>
<path d="M118.871 101.881L126.775 102.598L134.674 101.881V104.373L126.775 105.088L118.871 104.373V101.881ZM125.387 103.19H128.17V117.978H125.387V103.19Z" fill="white"/>
<path d="M136.777 117.982L137.479 110.36L136.777 101.879H139.56L140.263 110.406L139.56 116.952L138.319 115.683H144.919C145.883 115.683 146.65 115.432 147.209 114.922C147.476 114.655 147.688 114.337 147.832 113.987C147.977 113.637 148.051 113.262 148.051 112.883C148.051 112.504 147.977 112.129 147.832 111.779C147.688 111.429 147.476 111.111 147.209 110.843C146.65 110.334 145.883 110.082 144.919 110.082H138.045V107.786H145.044C146.109 107.759 147.166 107.979 148.133 108.429C148.962 108.823 149.662 109.447 150.15 110.228C150.618 111.036 150.865 111.955 150.865 112.891C150.865 113.826 150.618 114.745 150.15 115.554C149.661 116.334 148.961 116.958 148.133 117.352C147.166 117.803 146.109 118.023 145.044 117.996L136.777 117.982Z" fill="white"/>
<path d="M93.2775 101.879L100.845 117.982H97.8821L91.0101 102.954H92.0812L85.2072 117.982H82.2461L89.8117 101.879H93.2775ZM85.9643 114.289V111.949L91.5446 111.231L96.9779 111.949V114.289L91.5446 113.571L85.9643 114.289Z" fill="white"/>
<path d="M203.779 79.6445L211.347 95.7472H208.384L201.51 80.7196H202.585L195.711 95.7472H192.75L200.314 79.6445H203.779ZM196.468 92.0542V89.7142L202.047 88.9968L207.48 89.7142V92.0542L202.047 91.3369L196.468 92.0542Z" fill="white"/>
<path d="M218.797 87.7383H216.023L213.918 95.7476H216.692L218.797 87.7383Z" fill="white"/>
<path d="M142.647 79.6445H139.191L142.703 87.7378L139.191 95.7472H142.647L145.455 87.7378L142.647 79.6445Z" fill="white"/>
<path d="M154.697 95.7472H158.153L154.641 87.6519L158.153 79.6445H154.697L151.887 87.6519L154.697 95.7472Z" fill="white"/>
<path d="M150.051 79.6445H147.297V95.7472H150.051V79.6445Z" fill="white"/>
<path d="M187.797 95.7472H191.112L186.196 87.6519L191.112 79.6445H187.797L182.883 87.6519L187.797 95.7472Z" fill="white"/>
<path d="M181.047 79.6445H178.293V95.7472H181.047V79.6445Z" fill="white"/>
<path d="M175.208 89.3667L175.546 93.1635C174.834 93.997 173.953 94.6675 172.962 95.1299C172.911 95.1559 172.855 95.1779 172.799 95.2078C171.465 95.7801 170.025 96.0634 168.574 96.0392C166.804 96.0392 165.26 95.6894 163.924 94.994C162.636 94.33 161.559 93.3165 160.814 92.0684C160.088 90.7286 159.707 89.227 159.707 87.7011C159.707 86.1751 160.088 84.6735 160.814 83.3337C161.558 82.0826 162.635 81.0663 163.924 80.4001C165.26 79.7027 166.804 79.353 168.574 79.353C170.025 79.3289 171.464 79.6114 172.799 80.1823C172.855 80.2123 172.911 80.2343 172.962 80.2622C173.953 80.7247 174.834 81.3952 175.546 82.2286L175.216 86.0255H172.461L172.71 83.1778C172.304 82.8455 171.851 82.576 171.366 82.3785C170.469 82.028 169.513 81.8576 168.551 81.8769C167.439 81.8504 166.338 82.0945 165.341 82.5883C164.462 83.0354 163.736 83.737 163.256 84.6026C162.772 85.5603 162.519 86.6196 162.519 87.6941C162.519 88.7686 162.772 89.8279 163.256 90.7855C163.737 91.6506 164.463 92.3525 165.341 92.8018C166.338 93.2966 167.439 93.5407 168.551 93.5132C169.512 93.5316 170.467 93.3626 171.365 93.0157C171.848 92.8241 172.301 92.5614 172.708 92.2363L172.456 89.3667H175.208Z" fill="white"/>
<path d="M116.575 111.605L116.913 115.402C116.201 116.235 115.32 116.906 114.33 117.368C114.278 117.394 114.222 117.416 114.167 117.446C112.832 118.019 111.392 118.302 109.942 118.278C108.171 118.278 106.627 117.926 105.291 117.228C104 116.567 102.919 115.553 102.173 114.303C101.447 112.963 101.066 111.461 101.066 109.935C101.066 108.408 101.447 106.906 102.173 105.566C102.917 104.316 103.995 103.3 105.283 102.635C106.619 101.937 108.163 101.585 109.934 101.585C111.384 101.561 112.824 101.844 114.159 102.417C114.214 102.447 114.27 102.469 114.322 102.497C115.312 102.958 116.193 103.628 116.905 104.461L116.575 108.258H113.821L114.069 105.408C113.663 105.077 113.21 104.807 112.726 104.609C111.829 104.259 110.873 104.088 109.912 104.107C108.8 104.079 107.699 104.323 106.702 104.819C105.823 105.266 105.097 105.967 104.618 106.833C104.133 107.791 103.88 108.85 103.88 109.925C103.88 110.999 104.133 112.058 104.618 113.016C105.097 113.89 105.826 114.599 106.71 115.05C107.707 115.546 108.808 115.79 109.92 115.762C110.881 115.78 111.836 115.611 112.734 115.266C113.217 115.073 113.669 114.81 114.077 114.487L113.825 111.615L116.575 111.605Z" fill="white"/>
<path d="M44.2725 91.173H41.4346L39.3281 87.4801L41.4346 83.7871H44.2725L42.166 87.4801L44.2725 91.173Z" fill="white"/>
</svg>
