<svg width="46" height="46" viewBox="0 0 46 46" fill="none" xmlns="http://www.w3.org/2000/svg">
<mask id="mask0_478_437" style="mask-type:alpha" maskUnits="userSpaceOnUse" x="0" y="0" width="46" height="46">
<rect width="45.0547" height="45.0547" fill="#D9D9D9"/>
</mask>
<g mask="url(#mask0_478_437)">
<path d="M21.1181 30.9757H23.934V23.936H30.9738V21.12H23.934V14.0802H21.1181V21.12H14.0783V23.936H21.1181V30.9757ZM10.5403 37.5462C9.6763 37.5462 8.95488 37.2568 8.37605 36.678C7.79723 36.0992 7.50781 35.3777 7.50781 34.5137V10.5423C7.50781 9.67826 7.79723 8.95683 8.37605 8.37801C8.95488 7.79918 9.6763 7.50977 10.5403 7.50977H34.5118C35.3758 7.50977 36.0972 7.79918 36.676 8.37801C37.2549 8.95683 37.5443 9.67826 37.5443 10.5423V34.5137C37.5443 35.3777 37.2549 36.0992 36.676 36.678C36.0972 37.2568 35.3758 37.5462 34.5118 37.5462H10.5403ZM10.5403 35.6689H34.5118C34.8006 35.6689 35.0653 35.5486 35.306 35.3079C35.5467 35.0672 35.667 34.8025 35.667 34.5137V10.5423C35.667 10.2535 35.5467 9.98874 35.306 9.74805C35.0653 9.50738 34.8006 9.38704 34.5118 9.38704H10.5403C10.2515 9.38704 9.98679 9.50738 9.74609 9.74805C9.50542 9.98874 9.38509 10.2535 9.38509 10.5423V34.5137C9.38509 34.8025 9.50542 35.0672 9.74609 35.3079C9.98679 35.5486 10.2515 35.6689 10.5403 35.6689Z" fill="#00002E"/>
</g>
</svg>
