<svg width="113" height="82" viewBox="0 0 113 82" fill="none" xmlns="http://www.w3.org/2000/svg">
<g id="Group 15">
<path id="Vector" d="M15.1662 31.8279C15.1789 31.7874 15.2077 31.7514 15.2482 31.7254C15.2886 31.6994 15.3384 31.6849 15.39 31.6841C15.4416 31.6833 15.4921 31.6963 15.5337 31.721C15.5754 31.7457 15.6058 31.7807 15.6205 31.8208C16.1083 33.0728 16.9305 33.8511 18.0871 34.1556C18.1312 34.1668 18.1702 34.1884 18.1991 34.2176C18.228 34.2469 18.2455 34.2824 18.2493 34.3197C18.2532 34.3571 18.2432 34.3945 18.2207 34.4272C18.1981 34.4599 18.164 34.4864 18.1228 34.5033C16.7094 35.0901 15.9557 36.1001 15.5785 37.3497C15.5673 37.3928 15.5384 37.4315 15.4963 37.4595C15.4543 37.4874 15.4018 37.5029 15.3475 37.5034C15.2931 37.5039 15.2402 37.4893 15.1974 37.4621C15.1547 37.4349 15.1247 37.3967 15.1124 37.3538C14.6506 35.9326 13.8506 35.0063 12.6965 34.5937C12.6519 34.5798 12.6136 34.5551 12.5868 34.523C12.56 34.4909 12.546 34.453 12.5467 34.4142C12.5474 34.3755 12.5627 34.3379 12.5906 34.3064C12.6185 34.275 12.6577 34.2512 12.7028 34.2384C13.9182 33.8694 14.7477 33.0735 15.1662 31.8244M112.715 34.3622L59.9775 33.5065C61.8853 27.9496 63.0543 22.6233 63.3231 17.8623C63.8387 8.748 61.0601 2.63947 55.5016 0.65997C45.2267 -2.99906 28.8958 8.85154 16.6417 28.8942C16.3529 29.4275 16.2178 30.0071 16.2468 30.589C16.2757 31.1709 16.4679 31.7399 16.8089 32.2526C17.1498 32.7653 17.6304 33.2084 18.2142 33.5481C18.7981 33.8879 19.4698 34.1155 20.1784 34.2135L20.9741 34.3236L20.2743 34.4074C19.5538 34.4938 18.8678 34.7138 18.2696 35.0503C17.6714 35.3868 17.1771 35.8307 16.8255 36.3473C16.4738 36.8639 16.2741 37.4394 16.242 38.0288C16.2099 38.6183 16.3463 39.2057 16.6404 39.7454L20.9096 47.5822C21.0773 47.8902 21.3892 48.1315 21.7766 48.2531C22.1639 48.3748 22.5951 48.3668 22.9752 48.2309C23.3553 48.095 23.6532 47.8423 23.8034 47.5285C23.9535 47.2147 23.9436 46.8654 23.7759 46.5574L19.5055 38.7207C19.4064 38.5383 19.3605 38.3398 19.3715 38.1408C19.3824 37.9417 19.4499 37.7473 19.5687 37.5728C19.6876 37.3983 19.8545 37.2484 20.0565 37.1347C20.2585 37.021 20.4902 36.9466 20.7335 36.9173L29.1771 35.9022C29.6206 35.8495 30.0264 35.6704 30.3215 35.3971C30.6166 35.1238 30.7818 34.7742 30.7872 34.4111C30.7926 34.048 30.638 33.6952 30.3512 33.4161C30.0643 33.1371 29.664 32.9501 29.2222 32.8888L20.7016 31.7117C20.4622 31.6796 20.2351 31.6034 20.0377 31.489C19.8404 31.3746 19.678 31.2251 19.5632 31.0519C19.3282 30.6966 19.3082 30.2844 19.4767 29.9692C30.5586 11.8462 45.8125 -0.011029 54.2373 2.98614C58.4663 4.49106 60.6347 9.87175 60.1893 17.7481C59.9211 22.5045 58.7132 27.8608 56.7378 33.4567L34.5226 33.0963C32.4256 33.0735 32.4438 35.6575 34.5226 35.6342L56.0918 35.2839C54.6196 39.1331 52.876 42.9107 50.8698 46.5981C45.3357 56.8001 38.2592 65.7048 30.9408 71.6717C24.0804 77.2651 17.7168 79.61 13.4928 78.102C5.23715 75.1643 5.53601 58.3436 14.1444 39.8713C14.434 39.3382 14.5698 38.7587 14.5413 38.1768C14.5129 37.5948 14.321 37.0258 13.9803 36.5129C13.6397 36 13.1591 35.5569 12.5752 35.2171C11.9913 34.8773 11.3195 34.6499 10.6108 34.552L9.812 34.4429L10.5162 34.3582C11.2367 34.2718 11.9228 34.0519 12.5211 33.7154C13.1194 33.3789 13.6137 32.9351 13.9654 32.4184C14.3171 31.9017 14.5168 31.3262 14.5488 30.7368C14.5808 30.1473 14.4443 29.5598 14.15 29.0201L6.19322 14.4155C6.11016 14.263 5.99086 14.1253 5.8421 14.0101C5.69334 13.895 5.51804 13.8048 5.32623 13.7445C5.13442 13.6843 4.92985 13.6553 4.72418 13.6591C4.51852 13.6629 4.31579 13.6995 4.12758 13.7668C3.93937 13.8341 3.76938 13.9307 3.62728 14.0513C3.48519 14.1718 3.37378 14.3138 3.29943 14.4692C3.22508 14.6246 3.18924 14.7903 3.19395 14.9569C3.19866 15.1235 3.24383 15.2878 3.32688 15.4402L11.2837 30.0439C11.3828 30.2262 11.4287 30.4246 11.4179 30.6236C11.407 30.8227 11.3397 31.017 11.2211 31.1915C11.1025 31.3661 10.9358 31.5161 10.734 31.63C10.5323 31.7439 10.3008 31.8186 10.0576 31.8482L1.60583 32.8634C1.16254 32.9169 0.757324 33.0967 0.463001 33.3705C0.168677 33.6443 0.0045468 33.9942 9.30729e-05 34.3573C-0.00436065 34.7204 0.151155 35.0728 0.438703 35.3513C0.726251 35.6299 1.12698 35.8162 1.56887 35.8768L10.0852 37.0538C10.3245 37.0862 10.5515 37.1624 10.7488 37.2768C10.9461 37.3912 11.1085 37.5406 11.2236 37.7137C11.4585 38.0689 11.4786 38.4806 11.2467 38.911C1.71235 59.3658 2.12648 76.826 12.2335 80.4257C13.5014 80.8717 14.8704 81.0981 16.2526 81.0901C21.1608 81.0901 27.0131 78.4746 33.1649 73.4599C40.7458 67.2782 48.0542 58.1005 53.7392 47.6188C55.9295 43.5884 57.8108 39.4523 59.3723 35.2342L112.715 34.3622Z" fill="#010082"/>
</g>
</svg>
