<svg width="38" height="38" viewBox="0 0 38 38" fill="none" xmlns="http://www.w3.org/2000/svg">
<circle cx="19" cy="19" r="18" transform="matrix(-1 0 0 1 38 0)" stroke="#00002E" stroke-width="2"/>
<mask id="mask0_478_417" style="mask-type:alpha" maskUnits="userSpaceOnUse" x="6" y="6" width="26" height="26">
<rect width="26" height="26" transform="matrix(-1 0 0 1 32 6)" fill="#00002E"/>
</mask>
<g mask="url(#mask0_478_417)">
<path d="M19 14C19.5553 14 19.611 13.3604 20 13C20.389 12.6396 21 12.5145 21 12C21 11.4855 20.389 11.3604 20 11C19.611 10.6396 19.5553 10 19 10C18.4447 10 18.389 10.6396 18 11C17.611 11.3604 17 11.4855 17 12C17 12.5145 17.611 12.6396 18 13C18.389 13.3604 18.4447 14 19 14ZM20 28V16H18V28H20Z" fill="#00002E"/>
</g>
</svg>
