<svg width="45" height="45" viewBox="0 0 45 45" fill="none" xmlns="http://www.w3.org/2000/svg">
<mask id="mask0_478_431" style="mask-type:alpha" maskUnits="userSpaceOnUse" x="0" y="0" width="45" height="45">
<rect width="44.4229" height="44.4229" fill="#D9D9D9"/>
</mask>
<g mask="url(#mask0_478_431)">
<path d="M22.2103 37.8027C21.4129 37.8027 20.739 37.5274 20.1885 36.9769C19.6379 36.4263 19.3626 35.7524 19.3626 34.9551C19.3626 34.1577 19.6379 33.4838 20.1885 32.9332C20.739 32.3827 21.4129 32.1074 22.2103 32.1074C23.0076 32.1074 23.6816 32.3827 24.2321 32.9332C24.7827 33.4838 25.0579 34.1577 25.0579 34.9551C25.0579 35.7524 24.7827 36.4263 24.2321 36.9769C23.6816 37.5274 23.0076 37.8027 22.2103 37.8027ZM11.7524 28.4127L9.85873 26.4976C11.4653 24.8911 13.3188 23.6328 15.4193 22.7227C17.5198 21.8127 19.7854 21.3577 22.2162 21.3577C24.647 21.3577 26.9106 21.8145 29.0072 22.7281C31.1037 23.6417 32.9553 24.9053 34.5618 26.519L32.6682 28.4127C31.3108 27.0553 29.7375 25.991 27.9482 25.2198C26.159 24.4485 24.2463 24.0629 22.2103 24.0629C20.1742 24.0629 18.2616 24.4485 16.4723 25.2198C14.6831 25.991 13.1098 27.0553 11.7524 28.4127ZM3.88585 20.5461L1.99219 18.6525C4.56927 16.0611 7.57707 14.0132 11.0156 12.5087C14.4541 11.0042 18.1856 10.252 22.2103 10.252C26.2349 10.252 29.9665 11.0042 33.405 12.5087C36.8435 14.0132 39.8513 16.0611 42.4284 18.6525L40.5347 20.5461C38.1593 18.1707 35.406 16.3121 32.2748 14.9701C29.1436 13.6282 25.7888 12.9572 22.2103 12.9572C18.6318 12.9572 15.2769 13.6282 12.1457 14.9701C9.01453 16.3121 6.26124 18.1707 3.88585 20.5461Z" fill="#00002E"/>
</g>
</svg>
